<?xml version="1.0" encoding="UTF-8"?>
<svg width="24px" height="24px" viewBox="0 0 24 24" version="1.1" xmlns="http://www.w3.org/2000/svg">
  <g stroke="none" stroke-width="1" fill="none" fill-rule="evenodd">
    <path
      d="M12,0 C5.373,0 0,5.373 0,12 C0,18.627 5.373,24 12,24 C18.627,24 24,18.627 24,12 C24,5.373 18.627,0 12,0 Z"
      fill="#0088CC" />
    <path
      d="M17.498,7.752 L5.498,12.752 C5.498,12.752 4.498,13.252 4.498,14.252 C4.498,15.252 5.498,15.752 5.498,15.752 L7.498,16.252 L8.498,19.252 C8.498,19.252 8.998,20.252 9.998,20.252 C10.998,20.252 11.498,19.252 11.498,19.252 L13.498,16.252 L16.498,17.752 C16.498,17.752 18.498,18.752 18.498,17.752 C18.498,16.752 17.498,7.752 17.498,7.752 Z"
      fill="#FFFFFF" />
  </g>
</svg> 