<?xml version="1.0" standalone="no"?><!DOCTYPE svg PUBLIC "-//W3C//DTD SVG 1.1//EN" "http://www.w3.org/Graphics/SVG/1.1/DTD/svg11.dtd"><svg t="1749658664562" class="icon" viewBox="0 0 1024 1024" version="1.1" xmlns="http://www.w3.org/2000/svg" p-id="7235" xmlns:xlink="http://www.w3.org/1999/xlink" width="200" height="200"><path d="M0 0h1024v1024H0V0z" fill="#202425" opacity=".01" p-id="7236"></path><path d="M341.333333 51.2A85.333333 85.333333 0 0 0 256 136.533333v102.4H204.8a136.533333 136.533333 0 0 0-136.533333 136.533334v443.733333a136.533333 136.533333 0 0 0 136.533333 136.533333h614.4a136.533333 136.533333 0 0 0 136.533333-136.533333V375.466667a136.533333 136.533333 0 0 0-136.533333-136.533334h-51.2V136.533333A85.333333 85.333333 0 0 0 682.666667 51.2H341.333333zM665.6 238.933333h-307.2V153.6h307.2V238.933333z" fill="#FF7744" p-id="7237"></path><path d="M68.266667 375.466667a136.533333 136.533333 0 0 1 136.533333-136.533334h614.4a136.533333 136.533333 0 0 1 136.533333 136.533334v68.266666a136.533333 136.533333 0 0 1-136.533333 136.533334H204.8a136.533333 136.533333 0 0 1-136.533333-136.533334v-68.266666z" fill="#FFAA44" p-id="7238"></path><path d="M273.066667 512a34.133333 34.133333 0 0 0-34.133334 34.133333v68.266667a34.133333 34.133333 0 0 0 34.133334 34.133333h34.133333a34.133333 34.133333 0 0 0 34.133333-34.133333v-68.266667a34.133333 34.133333 0 0 0-34.133333-34.133333H273.066667z m443.733333 0a34.133333 34.133333 0 0 0-34.133333 34.133333v68.266667a34.133333 34.133333 0 0 0 34.133333 34.133333h34.133333a34.133333 34.133333 0 0 0 34.133334-34.133333v-68.266667a34.133333 34.133333 0 0 0-34.133334-34.133333h-34.133333z" fill="#FFFFFF" p-id="7239"></path></svg>