<?xml version="1.0" standalone="no"?><!DOCTYPE svg PUBLIC "-//W3C//DTD SVG 1.1//EN" "http://www.w3.org/Graphics/SVG/1.1/DTD/svg11.dtd"><svg t="1749571856741" class="icon" viewBox="0 0 1024 1024" version="1.1" xmlns="http://www.w3.org/2000/svg" p-id="5454" xmlns:xlink="http://www.w3.org/1999/xlink" width="200" height="200"><path d="M480.426667 759.04l-149.76 90.88a11.946667 11.946667 0 0 1-18.346667-10.24v-79.786667a29.013333 29.013333 0 0 0-29.013333-29.013333H141.226667a27.306667 27.306667 0 0 1-27.306667-27.306667V298.666667a27.306667 27.306667 0 0 1 27.306667-27.306667h17.066666a35.84 35.84 0 0 0 0-71.68h-17.066666A98.986667 98.986667 0 0 0 42.666667 298.666667v404.906666a98.986667 98.986667 0 0 0 98.986666 98.986667h99.413334v128a31.573333 31.573333 0 0 0 48.213333 26.88l229.12-139.093333a35.84 35.84 0 1 0-37.546667-61.44z" fill="#52C41B" p-id="5455"></path><path d="M879.786667 60.16H320.853333a102.4 102.4 0 0 0-102.4 102.4v426.666667a102.4 102.4 0 0 0 102.4 102.4h132.693334L725.333333 855.466667a31.573333 31.573333 0 0 0 48.213334-26.88v-119.893334-17.92h106.666666a102.4 102.4 0 0 0 102.4-102.4v-426.666666a102.4 102.4 0 0 0-102.826666-101.546667zM416.426667 398.08a42.666667 42.666667 0 1 1 42.666666-42.666667 42.666667 42.666667 0 0 1-42.666666 42.666667z m183.466666 0a42.666667 42.666667 0 1 1 42.666667-42.666667 42.666667 42.666667 0 0 1-42.24 42.666667z m183.466667 0a42.666667 42.666667 0 1 1 42.666667-42.666667 42.666667 42.666667 0 0 1-42.24 42.666667z" fill="#52C41B" p-id="5456"></path></svg>