<svg fill="none" stroke="currentColor" stroke-width="2" viewBox="0 0 24 24"
  xmlns="http://www.w3.org/2000/svg" aria-hidden="true">
  <path stroke-linecap="round" stroke-linejoin="round"
    d="M9.75 3.104v5.614a2.25 2.25 0 01-2.244 2.244H4.5m0-8.693V18h11.25V4.757M16.5 4.757V3.104c0-1.025-.917-1.745-1.93-1.579l-1.377.23a1.944 1.944 0 00-1.782 1.341L9 7.5l5.25 4.5 1.5-4.5m1.5 1.5H21a2.25 2.25 0 012.25 2.25v2.25A2.25 2.25 0 0121 15h-1.5M16.5 19.497V21.75a2.25 2.25 0 01-2.25 2.25H12a2.25 2.25 0 01-2.25-2.25v-2.25"></path>
</svg> 