<?xml version="1.0" standalone="no"?><!DOCTYPE svg PUBLIC "-//W3C//DTD SVG 1.1//EN" "http://www.w3.org/Graphics/SVG/1.1/DTD/svg11.dtd"><svg t="1749658813762" class="icon" viewBox="0 0 1024 1024" version="1.1" xmlns="http://www.w3.org/2000/svg" p-id="11282" xmlns:xlink="http://www.w3.org/1999/xlink" width="200" height="200"><path d="M205.238592 132.929943S243.583768 99.697458 310.04874 102.253803c0 0 40.901521 10.22538 86.915732-28.119796 0 0 71.577662-63.908627 201.95126-12.781725 0 0 20.450761 15.33807 102.253803 5.11269 0 0 97.141112-25.563451 132.929943 86.915732 0 0 5.11269 23.007106-10.22538 43.457866l-86.915732 71.577662s7.669035 20.450761 0 46.014211c0 0 196.83857 132.929943 194.282225 401.346175 0 0 2.556345 260.747197-209.620296 288.866993 0 0-255.634507 56.239591-472.923837-23.007106 0 0-132.929943-53.683246-140.598978-247.965471 0 0-15.33807-189.169535 191.72588-393.67714 0 0 30.676141-23.007106 28.119795-38.345176 0-5.11269-178.944155-109.922838-122.704563-168.718775z m0 0" fill="#D63300" p-id="11283"></path><path d="M739.514711 276.085267s-184.056845 40.901521-306.761408 30.676141c0 0 2.556345-58.795937-43.457866-38.345176 0 0-12.781725-33.232486-66.464972 28.119796 0 0-10.22538 7.669035-12.781725 17.894415v2.556345c0 12.781725-71.577662 28.119796-69.021317 109.922838 0 0 10.22538 63.908627 71.577662 30.676141 0 0 33.232486-28.119796 58.795936-84.359387 0 0 7.669035-7.669035 20.450761 10.22538 0 0-23.007106 71.577662-10.22538 97.141112 0 0 35.788831 63.908627 84.359387-5.11269 0 0 12.781725-61.352282 0-107.366493 0 0 204.507605 7.669035 265.859887-48.570556 5.11269-2.556345 12.781725-25.563451 7.669035-43.457866z m-434.578661 138.042634c-17.894415 17.894415-23.007106-2.556345-23.007106-2.556345-5.11269-30.676141 46.014211-66.464972 46.014211-66.464972 23.007106 20.450761-23.007106 69.021317-23.007105 69.021317z m112.479183 30.67614c-2.556345-12.781725 5.11269-43.457866 5.11269-43.457866 10.22538 10.22538 10.22538 38.345176 10.22538 38.345176-7.669035 25.563451-15.33807 5.11269-15.33807 5.11269z m250.521816 316.986789c0-2.556345 0-2.556345 0 0-38.345176-15.33807-86.915732-2.556345-86.915732-2.556346-20.450761 7.669035-10.22538-17.894415-10.22538-17.894415 15.33807-23.007106 97.141112-5.11269 97.141112-5.11269 20.450761 0 25.563451-23.007106 25.563451-23.007106 0-30.676141-43.457866-35.788831-43.457866-35.788831-35.788831 2.556345-15.33807-15.33807-15.338071-15.33807 10.22538-5.11269 38.345176-46.014211 38.345176-46.014211 28.119796-35.788831-12.781725-63.908627-12.781725-63.908627-23.007106-23.007106-35.788831 12.781725-35.788831 12.781726-2.556345 12.781725-86.915732 102.253803-86.915732 102.253802-15.33807 15.33807-20.450761 2.556345-20.450761 2.556345-33.232486-63.908627-86.915732-109.922838-86.915732-109.922838-51.126901-10.22538-63.908627 23.007106-46.014211 28.119796 17.894415 5.11269 76.690352 102.253803 76.690352 102.253803 0 15.33807-84.359387 10.22538-84.359387 10.22538-35.788831 25.563451 38.345176 46.014211 38.345176 46.014211-28.119796 15.33807-35.788831 28.119796-35.788831 28.119796-35.788831 46.014211 12.781725 61.352282 12.781725 61.352281 23.007106 12.781725 99.697458-5.11269 99.697457-5.11269 2.556345 12.781725 0 66.464972 0 66.464972 35.788831 53.683246 76.690352 0 76.690352 0 5.11269-25.563451-2.556345-66.464972-2.556345-66.464972 0-10.22538 17.894415-10.22538 17.894416-10.22538 10.22538-5.11269 99.697458 2.556345 99.697457 2.556345 23.007106-12.781725 23.007106-46.014211-15.33807-61.352281z m-181.5005 12.781725s-66.464972 17.894415-71.577661 12.781725c0 0-12.781725-10.22538 2.556345-15.33807 0 0 38.345176-28.119796 69.021316-28.119796V774.572555z m0 0" fill="#F0B417" p-id="11284"></path><path d="M931.240591 715.776618c0-148.268014-58.795937-253.078161-112.479183-319.543133 48.570556 71.577662 76.690352 158.493394 76.690352 253.078162 0 145.711669-69.021317 273.528922-176.38781 357.888309 217.289331-30.676141 212.17664-291.423337 212.176641-291.423338zM274.259909 194.282225s86.915732 10.22538 135.486288-23.007106c0 0 43.457866-38.345176 120.148218 15.338071 0 0 43.457866 17.894415 117.591873-10.22538 0 0 43.457866-43.457866 112.479183-20.450761 0 0 43.457866-17.894415-35.788831-43.457866 0 0-48.570556-17.894415-109.922837-2.556345 0 0-25.563451 2.556345-46.014212-10.22538 0 0-81.803042-51.126901-227.51471 28.119795 0 0-48.570556 25.563451-61.352282 38.345176 5.11269 2.556345-28.119796 12.781725-5.11269 28.119796z m0 0" fill="#AD2B07" p-id="11285"></path></svg>