<?xml version="1.0" standalone="no"?><!DOCTYPE svg PUBLIC "-//W3C//DTD SVG 1.1//EN" "http://www.w3.org/Graphics/SVG/1.1/DTD/svg11.dtd"><svg t="1749572223153" class="icon" viewBox="0 0 1024 1024" version="1.1" xmlns="http://www.w3.org/2000/svg" p-id="4575" xmlns:xlink="http://www.w3.org/1999/xlink" width="200" height="200"><path d="M492.2368 77.9776L166.2976 206.3872a70.9632 70.9632 0 0 0-44.9536 66.048v221.952c0 104.5504 85.7088 362.2912 361.3184 453.12 14.9504 4.9152 31.232 4.6592 45.9776-0.768 282.7264-102.9632 371.8144-357.0176 371.8144-470.4768V281.6c0-28.1088-16.5888-53.5552-42.2912-64.9216l-311.2448-137.6256a71.05536 71.05536 0 0 0-54.6816-1.0752z" fill="#FF5D50" p-id="4576"></path><path d="M510.3616 185.9584V504.832c0 1.0752 0.8704 1.9968 1.9968 1.9968h278.6816c12.5952 0 21.9648 11.5712 19.456 23.9104-14.0288 68.352-71.3216 264.0384-274.8928 333.312-12.9024 4.4032-26.368-5.1712-26.368-18.7904v-338.944a1.9968 1.9968 0 0 0-1.9968-1.9968H228.3008c-10.9568 0-19.8656-8.9088-19.8656-19.8656V294.656c0-8.0384 4.8128-15.2576 12.2368-18.3296l262.1952-108.6976c13.1072-5.4272 27.4944 4.1984 27.4944 18.3296z" fill="#FFDF99" p-id="4577"></path></svg>