<?xml version="1.0" standalone="no"?><!DOCTYPE svg PUBLIC "-//W3C//DTD SVG 1.1//EN" "http://www.w3.org/Graphics/SVG/1.1/DTD/svg11.dtd"><svg t="1749572874457" class="icon" viewBox="0 0 1024 1024" version="1.1" xmlns="http://www.w3.org/2000/svg" p-id="14528" xmlns:xlink="http://www.w3.org/1999/xlink" width="200" height="200"><path d="M957.022698 86.317771v521.616926c0 31.302986-7.420599 62.392737-22.261797 93.311898-14.841198 31.004456-34.245637 60.985382-58.298613 90.070718a646.487693 646.487693 0 0 1-82.308942 82.564824 894.949815 894.949815 0 0 1-93.908958 69.429512c-31.772104 20.300029-62.605972 37.230936-92.544251 50.664778-29.980925 13.433843-56.208904 22.645621-78.76923 27.720629l-10.66178 1.833826-9.808838-1.876474c-23.157386-5.03236-49.982425-14.244138-80.603057-27.677981a778.736412 778.736412 0 0 1-95.188372-50.664778A894.86452 894.86452 0 0 1 235.646662 873.83949a671.692141 671.692141 0 0 1-84.99571-82.564824 438.62563 438.62563 0 0 1-60.473617-90.070718c-15.480905-30.919162-23.200033-62.008913-23.200033-93.311899V86.360418l36.505935-5.672067L512.852942 0l417.430012 80.688351 26.697097 5.62942z m-443.999167-10.789721l-4.947066-1.023531-351.412269 62.947149v329.107826h356.359335V75.485403z m354.269626 391.031444h-354.269626v468.393319c22.773562-5.501478 47.551539-13.902961 74.376577-25.247095 26.739744-11.344134 53.180959-24.73533 79.238349-40.258881a707.728958 707.728958 0 0 0 75.400109-51.560368c24.13827-18.892674 45.46183-39.23535 64.098621-60.900088a301.64308 301.64308 0 0 0 44.523593-67.553038c11.088251-23.370622 16.632377-47.125068 16.632377-71.22069V466.559494z" fill="#E4655F" p-id="14529"></path></svg>