<?xml version="1.0" standalone="no"?><!DOCTYPE svg PUBLIC "-//W3C//DTD SVG 1.1//EN" "http://www.w3.org/Graphics/SVG/1.1/DTD/svg11.dtd"><svg t="1749572803091" class="icon" viewBox="0 0 1024 1024" version="1.1" xmlns="http://www.w3.org/2000/svg" p-id="31462" xmlns:xlink="http://www.w3.org/1999/xlink" width="200" height="200"><path d="M0 0h1024v1024H0V0z" fill="#202425" opacity=".01" p-id="31463"></path><path d="M815.581867 299.997867a68.266667 68.266667 0 0 0-61.0304-122.129067l-351.8464 175.9232c-12.970667 6.485333-28.398933 3.857067-39.936-4.9152a204.8 204.8 0 1 0 0 326.2464c11.537067-8.772267 26.965333-11.400533 39.936-4.9152l351.8464 175.9232a68.266667 68.266667 0 0 0 61.0304-122.129067l-351.8464-175.9232c-12.9024-6.485333-20.104533-20.3776-20.002134-34.816V512v-1.262933c-0.1024-14.4384 7.099733-28.330667 20.002134-34.816l351.8464-175.9232z" fill="#FF7744" p-id="31464"></path><path d="M785.066667 580.266667a204.8 204.8 0 1 1 0 409.6 204.8 204.8 0 0 1 0-409.6z m0-546.133334a204.8 204.8 0 1 1 0 409.6 204.8 204.8 0 0 1 0-409.6z" fill="#FFAA44" p-id="31465"></path></svg>