<?xml version="1.0" standalone="no"?><!DOCTYPE svg PUBLIC "-//W3C//DTD SVG 1.1//EN" "http://www.w3.org/Graphics/SVG/1.1/DTD/svg11.dtd"><svg t="1749572414769" class="icon" viewBox="0 0 1024 1024" version="1.1" xmlns="http://www.w3.org/2000/svg" p-id="30258" xmlns:xlink="http://www.w3.org/1999/xlink" width="200" height="200"><path d="M1024 512c0-282.752-229.162667-512-511.957333-512C229.290667 0 0 229.248 0 512s229.290667 512 512.042667 512C794.88 1024 1024 794.752 1024 512z m-421.333333 187.562667c0-10.24 1.578667-20.224 4.693333-29.568l-179.968-103.168a114.56 114.56 0 1 1-9.045333-166.229334l58.624-64.085333a74.794667 74.794667 0 1 1 141.909333-33.109333 74.794667 74.794667 0 0 1-119.168 60.330666l-58.24 63.744a114.346667 114.346667 0 0 1 5.930667 110.549334l176.64 101.333333a95.914667 95.914667 0 0 1 170.325333 60.330667 95.914667 95.914667 0 0 1-191.701333-0.128z" fill="#3882F5" p-id="30259"></path></svg>