<?xml version="1.0" standalone="no"?><!DOCTYPE svg PUBLIC "-//W3C//DTD SVG 1.1//EN" "http://www.w3.org/Graphics/SVG/1.1/DTD/svg11.dtd"><svg t="1749572279032" class="icon" viewBox="0 0 1024 1024" version="1.1" xmlns="http://www.w3.org/2000/svg" p-id="6569" xmlns:xlink="http://www.w3.org/1999/xlink" width="200" height="200"><path d="M913.493333 615.530667v-168.874667c43.584-15.957333 74.965333-57.472 74.965334-106.517333A113.92 113.92 0 0 0 874.666667 226.346667c-18.218667 0-35.221333 4.714667-50.517334 12.352l-198.890666-126.293334C622.528 52.053333 572.992 3.712 512 3.712s-110.528 48.362667-113.28 108.693333l-196.309333 124.672A112.064 112.064 0 0 0 149.333333 223.296a113.92 113.92 0 0 0-113.792 113.792c0 49.045333 31.36 90.56 74.944 106.517333v168.256c-43.584 15.957333-74.944 57.472-74.944 106.517334A113.92 113.92 0 0 0 149.333333 832.170667c29.077333 0 55.36-11.285333 75.498667-29.312l173.717333 100.309333c-0.021333 1.130667-0.341333 2.197333-0.341333 3.328 0 62.741333 51.050667 113.792 113.792 113.792s113.792-51.050667 113.792-113.792c0-1.152-0.32-2.218667-0.341333-3.328l168.405333-97.237333c19.648 16.128 44.437333 26.218667 71.765333 26.218666a113.92 113.92 0 0 0 113.792-113.792c0-45.568-27.114667-84.693333-65.92-102.826666zM512 792.704a113.493333 113.493333 0 0 0-92.864 48.448l-160.576-92.714667c2.666667-9.642667 4.544-19.584 4.544-30.058666 0-54.08-37.973333-99.264-88.618667-110.762667v-159.744c50.645333-11.498667 88.618667-56.682667 88.618667-110.762667 0-19.541333-5.397333-37.696-14.122667-53.781333l166.698667-105.877333c20.117333 32.213333 55.616 53.845333 96.32 53.845333s76.16-21.653333 96.298667-53.845333l167.957333 106.666666a112.426667 112.426667 0 0 0-15.381333 56.021334c0 54.08 37.994667 99.264 88.618666 110.762666v155.306667c-55.04 7.914667-97.642667 54.933333-97.642666 112.170667 0 12.096 2.389333 23.552 5.909333 34.474666l-152.917333 88.298667A113.493333 113.493333 0 0 0 512 792.704z" fill="#C62828" p-id="6570"></path><path d="M511.552 499.754667c58.624 0.256 108.757333-48.042667 108.437333-104.576-0.298667-57.173333-48.490667-103.466667-107.946666-103.466667-59.584 0-107.861333 46.592-107.861334 104.085333 0.021333 57.237333 48.021333 103.701333 107.370667 103.957334zM617.301333 541.290667c-18.901333-14.08-42.304-23.829333-70.912-28.288l-33.834666 32.576v0.042666c-0.277333 0.213333-0.618667 0.213333-0.810667 0l-33.6-32.618666c-0.042667-0.042667-0.106667-0.042667-0.149333-0.042667l-0.405334 0.042667c-28.522667 4.458667-51.84 14.250667-70.656 28.330666-121.984 91.626667-86.336 177.045333 68.224 177.045334h63.466667c165.589333 0 201.322667-85.674667 78.677333-177.088z" fill="#C62828" p-id="6571"></path></svg>