<?xml version="1.0" standalone="no"?><!DOCTYPE svg PUBLIC "-//W3C//DTD SVG 1.1//EN" "http://www.w3.org/Graphics/SVG/1.1/DTD/svg11.dtd"><svg t="1749572725715" class="icon" viewBox="0 0 1170 1024" version="1.1" xmlns="http://www.w3.org/2000/svg" p-id="6718" xmlns:xlink="http://www.w3.org/1999/xlink" width="228.515625" height="200"><path d="M898.260678 850.764012H252.871703l322.694488-556.506458z m-547.259657-56.613068h449.130339L575.566191 407.10627z" fill="#89ABFF" p-id="6719"></path><path d="M547.259657 1024L178.897295 803.775166 188.710226 378.988446 566.130679 174.803981l368.362362 220.224834-9.812932 424.59801zM236.265203 772.637978l312.504135 186.634414 320.807385-173.235988 7.92583-359.870401-312.504135-186.823124-320.807385 173.424698z" fill="#89ABFF" p-id="6720"></path><path d="M698.227838 124.418351a128.322954 128.322954 0 0 1-132.097159 124.360039 128.511664 128.511664 0 0 1-132.097158-124.360039A128.511664 128.511664 0 0 1 566.130679 0.058311a128.322954 128.322954 0 0 1 132.097159 124.36004" fill="#3251FA" p-id="6721"></path><path d="M773.711928 397.293338c0 5.850017-81.334108 28.872665-190.786039 28.872665S377.420453 403.143355 377.420453 397.293338c0-98.695448 88.693806-178.708584 198.145738-178.708584S773.711928 298.59789 773.711928 397.293338M1094.519313 671.678007a132.097158 132.097158 0 0 1-264.194317 0 132.097158 132.097158 0 0 1 264.194317 0" fill="#3251FA" p-id="6722"></path><path d="M1170.003404 944.552995c0 5.850017-81.334108 28.872665-190.786039 28.872664S773.711928 950.403012 773.711928 944.552995c0-98.695448 88.693806-178.708584 198.145738-178.708585S1170.003404 845.857546 1170.003404 944.552995M320.807385 671.678007a128.322954 128.322954 0 0 1-132.097159 124.360039 128.511664 128.511664 0 0 1-132.097158-124.360039A128.511664 128.511664 0 0 1 188.710226 547.317968a128.322954 128.322954 0 0 1 132.097159 124.360039" fill="#3251FA" p-id="6723"></path><path d="M396.291475 944.552995c0 5.850017-81.334108 28.872665-190.786038 28.872664S0 950.403012 0 944.552995c0-98.695448 88.693806-178.708584 198.145738-178.708585S396.291475 845.857546 396.291475 944.552995" fill="#3251FA" p-id="6724"></path></svg>